# xmcd
#
# Track frame offsets: 
#        150
#        14292
#        30800
#        47475
#        63050
#        79602
#        89867
#        103870
#        114072
#        132535
#        145747
#        160090
#
# Disc length: 2373 seconds
#
# Revision: 3
# Processed by: cddbd v1.5.2PL0 Copyright (c) Steve Scherf et al.
# Submitted via: ExactAudioCopy v0.95b4
#
DISCID=8c09430c
DTITLE=Various Artist - Country Countdown - Country Dance
DYEAR=2000
DGENRE=Country
TTITLE0=Asleep At The Wheel - House Of Blue Lights
TTITLE1=Shenandoah - Next To You, Next To Me
TTITLE2=Larry Boone - Get In Line
TTITLE3=Charlie Daniels Band - Boogie Woogie Fiddle Country Blues
TTITLE4=Stacy Dean Campbell - Rosalee
TTITLE5=Billy Walker - Smokey Places
TTITLE6=Sweethearts Of The Rodeo - Midnight Girl - Sunset Town
TTITLE7=Ken Mellons - Rub A Dubbin'
TTITLE8=Collin Raye - One Boy, One Girl
TTITLE9=Ricky VanShelton - Heartache Big As Texas
TTITLE10=Ricky Skaggs - Highway 40 Blues
TTITLE11=Grady Martin With Rex Allen Sr. - Ghost Riders In The Sky
EXTD=YEAR: 2000
EXTT0=
EXTT1=
EXTT2=
EXTT3=
EXTT4=
EXTT5=
EXTT6=
EXTT7=
EXTT8=
EXTT9=
EXTT10=
EXTT11=
PLAYORDER=
